<svg xmlns="http://www.w3.org/2000/svg" viewBox="234.13998474121092 182.49599780273437 106.71910682091345 120" width="106.71910682091345" height="120"
    preserveAspectRatio="xMidYMid meet" class="roots-wrapper">
    <g transform="rotate(0 0 0)">
        <svg viewBoxSize="575" data-root-id="0292942826029" xmlns="http://www.w3.org/2000/svg"
            xmlns:xlink="http://www.w3.org/1999/xlink" version="1.1" x="234.13998474121092"
            y="182.49599780273437"
            viewBox="7.226743698120117 2.8346457481384277 70.58588409423828 79.37007141113281"
            xml:space="preserve" height="120" width="106.71910682091345"
            preserveAspectRatio="xMinYMin" zoom="1" editorType="buyer" data-layer-role="icon"
            style="position: absolute; height: 120px; width: 106.719px; top: 182.496px; left: 234.14px;"><g id="Layer_3" name="Layer %{number}" zoom="1" data-layer-id="6133382526029"></g><path id="Layer_1" class="st4" d="M49.6353722,45.2181129L27.2038727,58.2753029c-2.1705227,1.263443-4.8948174-0.2965622-4.9037304-2.8080139   l-0.0921097-25.9548435c-0.0089111-2.5114498,2.7042427-4.0907536,4.8836765-2.8427467l22.5236092,12.8976536   C51.794754,40.8153572,51.8058929,43.95467,49.6353722,45.2181129z" name="Layer %{number}" zoom="1" data-layer-id="3613785626029" style="fill: rgb(194, 42, 246);"></path><path id="Layer_1" class="st73" d="M17.008934,23.8800545c-0.0141487-3.9869232,4.2930565-6.4939995,7.7528305-4.5126591l0.0000076,0.0000057   l8.0820007,4.6279087l9.7112389-5.6520443L16.99403,3.7069898c-4.3588715-2.495899-9.7850685,0.6627164-9.7672424,5.6855588   l0.1095381,30.8660278l9.7505493,5.5835381L17.008934,23.8800545z" name="Layer %{number}" zoom="1" data-layer-id="2787031826029" style="fill: rgb(250, 203, 254);"></path><path id="Layer_1" class="st79" d="M49.0749207,51.5372505l0.0398712,11.2355843L74.5702744,47.954792   c4.3409653-2.5269432,4.3186111-8.8055038-0.0402374-11.3014755L47.7442322,21.3151608l-9.7101135,5.6526012L57.092598,37.8812752   l0.0000076,0.0000038c3.4597893,1.9810982,3.4774742,6.9646416,0.0318336,8.9702492l-0.0000076,0.0000038L49.0749207,51.5372505z" name="Layer %{number}" zoom="1" data-layer-id="4146570726029" style="fill: rgb(87, 210, 255);"></path><path id="Layer_1" class="st44" d="M17.1411495,61.1363335l-0.0330544-9.3142319l-9.7505465-5.5829811l0.1049337,29.4541702   c0.0178943,5.0228806,5.4664888,8.1428223,9.8075008,5.6159134l26.6762524-15.5282822l-0.039875-11.2355804L24.9258213,65.5938492   h-0.0000076C21.4801884,67.5997009,17.1553001,65.1232529,17.1411495,61.1363335z" name="Layer %{number}" zoom="1" data-layer-id="1187462326029" style="fill: rgb(1, 107, 255);"></path></svg>
    </g>
    <g transform="rotate(0 0 0)">
        <svg viewBoxSize="575" data-root-id="6344442626029" xmlns="http://www.w3.org/2000/svg"
            y="314.504" viewBox="0 0 0 0" x="287.5000048828125" height="0" width="0"
            fontUrl="https://fonts.gstatic.com/s/notosans/v42/o-0mIpQlx3QUlC5A4PNB6Ryti20_6n1iPHjcz6L1SoM-jCpoiyAjBN9d41P6zHtY.ttf"
            zoom="1" editorType="buyer" data-layer-role="brandName"
            style="position: absolute; top: 314.504px; width: 0px; height: 0px; left: 287.5px;">
            <g data-horizontal-grow="center" zoom="1" root="[object Object]"
                style="fill: rgb(0, 0, 0);">
                <path d="" transform="translate(0, 0)"></path>
            </g>
        </svg>
    </g>
</svg>