<svg xmlns="http://www.w3.org/2000/svg" viewBox="0 0 320 130" width="320" height="130" fill="none">
  <!-- Logo icon -->
  <g transform="translate(110, 0) scale(0.75)">
    <path d="M49.6353722,45.2181129L27.2038727,58.2753029c-2.1705227,1.263443-4.8948174-0.2965622-4.9037304-2.8080139l-0.0921097-25.9548435c-0.0089111-2.5114498,2.7042427-4.0907536,4.8836765-2.8427467l22.5236092,12.8976536C51.794754,40.8153572,51.8058929,43.95467,49.6353722,45.2181129z" fill="#C22AF6"/>
    <path d="M17.008934,23.8800545c-0.0141487-3.9869232,4.2930565-6.4939995,7.7528305-4.5126591l0.0000076,0.0000057l8.0820007,4.6279087l9.7112389-5.6520443L16.99403,3.7069898c-4.3588715-2.495899-9.7850685,0.6627164-9.7672424,5.6855588l0.1095381,30.8660278l9.7505493,5.5835381L17.008934,23.8800545z" fill="#FACBFE"/>
    <path d="M49.0749207,51.5372505l0.0398712,11.2355843L74.5702744,47.954792c4.3409653-2.5269432,4.3186111-8.8055038-0.0402374-11.3014755L47.7442322,21.3151608l-9.7101135,5.6526012L57.092598,37.8812752l0.0000076,0.0000038c3.4597893,1.9810982,3.4774742,6.9646416,0.0318336,8.9702492l-0.0000076,0.0000038L49.0749207,51.5372505z" fill="#57D2FF"/>
    <path d="M17.1411495,61.1363335l-0.0330544-9.3142319l-9.7505465-5.5829811l0.1049337,29.4541702c0.0178943,5.0228806,5.4664888,8.1428223,9.8075008,5.6159134l26.6762524-15.5282822l-0.039875-11.2355804L24.9258213,65.5938492h-0.0000076C21.4801884,67.5997009,17.1553001,65.1232529,17.1411495,61.1363335z" fill="#016BFF"/>
  </g>
  <!-- InsightTube text -->
  <text x="160" y="100" text-anchor="middle" font-family="'Segoe UI', system-ui, -apple-system, sans-serif" font-size="28" font-weight="700" fill="#FFFFFF" letter-spacing="-0.5">
    InsightTube
  </text>
  <!-- Tagline -->
  <text x="160" y="122" text-anchor="middle" font-family="'Segoe UI', system-ui, -apple-system, sans-serif" font-size="11" fill="#9CA3AF" letter-spacing="0.3">
    YouTube videos to study sessions
  </text>
</svg>
