<svg xmlns="http://www.w3.org/2000/svg" viewBox="109.79498291015625 182.49599780273437 355.4100036621094 210.00800000000004" width="355.4100036621094" height="210.00800000000004"
    preserveAspectRatio="xMidYMid meet" class="roots-wrapper">
    <g transform="rotate(0 0 0)">
        <svg viewBoxSize="575" data-root-id="7799100630125" xmlns="http://www.w3.org/2000/svg"
            xmlns:xlink="http://www.w3.org/1999/xlink" version="1.1" x="234.13998474121092"
            y="182.49599780273437"
            viewBox="7.226743698120117 2.8346457481384277 70.58588409423828 79.37007141113281"
            xml:space="preserve" height="120" width="106.71910682091345"
            preserveAspectRatio="xMinYMin" zoom="1" editorType="buyer" data-layer-role="icon"
            style="position: absolute; height: 120px; width: 106.719px; top: 182.496px; left: 234.14px;"><g id="Layer_3" name="Layer %{number}" zoom="1" data-layer-id="1460461730128"></g><path id="Layer_1" class="st4" d="M49.6353722,45.2181129L27.2038727,58.2753029c-2.1705227,1.263443-4.8948174-0.2965622-4.9037304-2.8080139   l-0.0921097-25.9548435c-0.0089111-2.5114498,2.7042427-4.0907536,4.8836765-2.8427467l22.5236092,12.8976536   C51.794754,40.8153572,51.8058929,43.95467,49.6353722,45.2181129z" name="Layer %{number}" zoom="1" data-layer-id="4107581830129" style="fill: rgb(194, 42, 246);"></path><path id="Layer_1" class="st73" d="M17.008934,23.8800545c-0.0141487-3.9869232,4.2930565-6.4939995,7.7528305-4.5126591l0.0000076,0.0000057   l8.0820007,4.6279087l9.7112389-5.6520443L16.99403,3.7069898c-4.3588715-2.495899-9.7850685,0.6627164-9.7672424,5.6855588   l0.1095381,30.8660278l9.7505493,5.5835381L17.008934,23.8800545z" name="Layer %{number}" zoom="1" data-layer-id="4272863930131" style="fill: rgb(250, 203, 254);"></path><path id="Layer_1" class="st79" d="M49.0749207,51.5372505l0.0398712,11.2355843L74.5702744,47.954792   c4.3409653-2.5269432,4.3186111-8.8055038-0.0402374-11.3014755L47.7442322,21.3151608l-9.7101135,5.6526012L57.092598,37.8812752   l0.0000076,0.0000038c3.4597893,1.9810982,3.4774742,6.9646416,0.0318336,8.9702492l-0.0000076,0.0000038L49.0749207,51.5372505z" name="Layer %{number}" zoom="1" data-layer-id="9040607330132" style="fill: rgb(87, 210, 255);"></path><path id="Layer_1" class="st44" d="M17.1411495,61.1363335l-0.0330544-9.3142319l-9.7505465-5.5829811l0.1049337,29.4541702   c0.0178943,5.0228806,5.4664888,8.1428223,9.8075008,5.6159134l26.6762524-15.5282822l-0.039875-11.2355804L24.9258213,65.5938492   h-0.0000076C21.4801884,67.5997009,17.1553001,65.1232529,17.1411495,61.1363335z" name="Layer %{number}" zoom="1" data-layer-id="3837437130133" style="fill: rgb(1, 107, 255);"></path></svg>
    </g>
    <g transform="rotate(0 0 0)">
        <svg viewBoxSize="575" data-root-id="9672385230137" xmlns="http://www.w3.org/2000/svg"
            y="370.5039978027344" viewBox="0 6.800000190734863 355.4100036621094 22"
            x="109.79498291015625" height="22" width="355.4100036621094"
            fontUrl="https://fonts.gstatic.com/s/notosans/v42/o-0mIpQlx3QUlC5A4PNB6Ryti20_6n1iPHjcz6L1SoM-jCpoiyD9A99d41P6zHtY.ttf"
            zoom="1" editorType="buyer" data-layer-role="slogan"
            style="position: absolute; top: 370.504px; width: 355.41px; height: 22px; left: 109.795px;">
            <g data-horizontal-grow="center" zoom="1" root="[object Object]"
                style="fill: rgb(0, 0, 0);">
                <path
                    d="M2.16 7.81L6.23 15.53L10.32 7.81L12.45 7.81L7.22 17.42L7.22 23.52L5.24 23.52L5.24 17.51L0 7.81L2.16 7.81ZM24.57 17.60L24.57 17.60Q24.57 19.07 24.19 20.21Q23.80 21.34 23.09 22.13Q22.37 22.92 21.35 23.33Q20.33 23.74 19.07 23.74L19.07 23.74Q17.91 23.74 16.92 23.33Q15.93 22.92 15.20 22.13Q14.48 21.34 14.07 20.21Q13.66 19.07 13.66 17.60L13.66 17.60Q13.66 15.64 14.32 14.29Q14.98 12.94 16.21 12.22Q17.45 11.51 19.14 11.51L19.14 11.51Q20.75 11.51 21.97 12.22Q23.19 12.94 23.88 14.29Q24.57 15.64 24.57 17.60ZM15.66 17.60L15.66 17.60Q15.66 18.99 16.03 20.01Q16.39 21.03 17.16 21.58Q17.93 22.13 19.12 22.13L19.12 22.13Q20.31 22.13 21.08 21.58Q21.85 21.03 22.21 20.01Q22.57 18.99 22.57 17.60L22.57 17.60Q22.57 16.19 22.20 15.20Q21.82 14.21 21.06 13.67Q20.31 13.13 19.10 13.13L19.10 13.13Q17.29 13.13 16.48 14.32Q15.66 15.51 15.66 17.60ZM35.55 11.73L37.49 11.73L37.49 23.52L35.90 23.52L35.62 21.96L35.53 21.96Q35.16 22.57 34.56 22.97Q33.97 23.36 33.26 23.55Q32.56 23.74 31.79 23.74L31.79 23.74Q30.38 23.74 29.43 23.29Q28.47 22.84 27.98 21.89Q27.50 20.94 27.50 19.45L27.50 19.45L27.50 11.73L29.46 11.73L29.46 19.32Q29.46 20.72 30.10 21.43Q30.73 22.13 32.08 22.13L32.08 22.13Q33.40 22.13 34.16 21.64Q34.91 21.14 35.23 20.18Q35.55 19.23 35.55 17.86L35.55 17.86L35.55 11.73ZM46.46 9.55L46.46 23.52L44.48 23.52L44.48 9.55L39.58 9.55L39.58 7.81L51.35 7.81L51.35 9.55L46.46 9.55ZM61.38 11.73L63.32 11.73L63.32 23.52L61.73 23.52L61.45 21.96L61.36 21.96Q60.98 22.57 60.39 22.97Q59.80 23.36 59.09 23.55Q58.39 23.74 57.62 23.74L57.62 23.74Q56.21 23.74 55.25 23.29Q54.30 22.84 53.81 21.89Q53.33 20.94 53.33 19.45L53.33 19.45L53.33 11.73L55.29 11.73L55.29 19.32Q55.29 20.72 55.92 21.43Q56.56 22.13 57.90 22.13L57.90 22.13Q59.22 22.13 59.98 21.64Q60.74 21.14 61.06 20.18Q61.38 19.23 61.38 17.86L61.38 17.86L61.38 11.73ZM68.99 6.80L68.99 10.87Q68.99 11.62 68.96 12.26Q68.93 12.91 68.88 13.29L68.88 13.29L68.99 13.29Q69.50 12.54 70.38 12.03Q71.26 11.53 72.64 11.53L72.64 11.53Q74.84 11.53 76.18 13.06Q77.51 14.59 77.51 17.62L77.51 17.62Q77.51 19.65 76.90 21.01Q76.30 22.37 75.20 23.06Q74.10 23.74 72.64 23.74L72.64 23.74Q71.26 23.74 70.38 23.23Q69.50 22.73 68.99 22.02L68.99 22.02L68.84 22.02L68.44 23.52L67.06 23.52L67.06 6.80L68.99 6.80ZM72.31 13.13L72.31 13.13Q71.06 13.13 70.33 13.61Q69.61 14.08 69.30 15.06Q68.99 16.04 68.99 17.56L68.99 17.56L68.99 17.64Q68.99 19.82 69.71 20.98Q70.42 22.13 72.36 22.13L72.36 22.13Q73.94 22.13 74.72 20.97Q75.50 19.80 75.50 17.60L75.50 17.60Q75.50 15.38 74.72 14.26Q73.94 13.13 72.31 13.13ZM85.14 11.51L85.14 11.51Q86.66 11.51 87.75 12.17Q88.84 12.83 89.42 14.02Q90.00 15.22 90.00 16.83L90.00 16.83L90.00 18.00L81.93 18.00Q81.97 20.00 82.95 21.04Q83.93 22.09 85.69 22.09L85.69 22.09Q86.81 22.09 87.68 21.88Q88.55 21.67 89.47 21.27L89.47 21.27L89.47 22.97Q88.57 23.36 87.69 23.55Q86.81 23.74 85.60 23.74L85.60 23.74Q83.93 23.74 82.64 23.06Q81.36 22.37 80.64 21.02Q79.93 19.67 79.93 17.71L79.93 17.71Q79.93 15.77 80.58 14.39Q81.22 13.00 82.40 12.25Q83.58 11.51 85.14 11.51ZM85.12 13.09L85.12 13.09Q83.73 13.09 82.93 13.98Q82.13 14.87 81.97 16.46L81.97 16.46L87.98 16.46Q87.98 15.44 87.67 14.70Q87.36 13.95 86.74 13.52Q86.11 13.09 85.12 13.09ZM103.53 23.52L101.31 23.52L96.84 11.73L98.91 11.73L101.42 18.68Q101.60 19.16 101.79 19.76Q101.99 20.35 102.15 20.89Q102.30 21.43 102.37 21.80L102.37 21.80L102.45 21.80Q102.54 21.43 102.71 20.88Q102.87 20.33 103.08 19.73Q103.29 19.14 103.44 18.68L103.44 18.68L105.95 11.73L108.02 11.73L103.53 23.52ZM109.89 11.73L111.83 11.73L111.83 23.52L109.89 23.52L109.89 11.73ZM110.88 7.30L110.88 7.30Q111.32 7.30 111.66 7.60Q112.00 7.90 112.00 8.54L112.00 8.54Q112.00 9.15 111.66 9.46Q111.32 9.77 110.88 9.77L110.88 9.77Q110.40 9.77 110.07 9.46Q109.74 9.15 109.74 8.54L109.74 8.54Q109.74 7.90 110.07 7.60Q110.40 7.30 110.88 7.30ZM119.75 23.74L119.75 23.74Q117.55 23.74 116.23 22.21Q114.91 20.68 114.91 17.64L114.91 17.64Q114.91 14.61 116.24 13.06Q117.57 11.51 119.77 11.51L119.77 11.51Q120.69 11.51 121.37 11.74Q122.06 11.97 122.56 12.36Q123.07 12.76 123.42 13.24L123.42 13.24L123.55 13.24Q123.53 12.96 123.48 12.40Q123.42 11.84 123.42 11.51L123.42 11.51L123.42 6.80L125.36 6.80L125.36 23.52L123.79 23.52L123.51 21.93L123.42 21.93Q123.07 22.44 122.56 22.85Q122.06 23.25 121.36 23.50Q120.67 23.74 119.75 23.74ZM120.05 22.13L120.05 22.13Q121.92 22.13 122.68 21.11Q123.44 20.09 123.44 18.02L123.44 18.02L123.44 17.67Q123.44 15.47 122.72 14.29Q121.99 13.11 120.03 13.11L120.03 13.11Q118.47 13.11 117.69 14.35Q116.91 15.60 116.91 17.69L116.91 17.69Q116.91 19.80 117.69 20.97Q118.47 22.13 120.05 22.13ZM133.65 11.51L133.65 11.51Q135.17 11.51 136.26 12.17Q137.35 12.83 137.93 14.02Q138.51 15.22 138.51 16.83L138.51 16.83L138.51 18.00L130.44 18.00Q130.48 20.00 131.46 21.04Q132.44 22.09 134.20 22.09L134.20 22.09Q135.32 22.09 136.19 21.88Q137.06 21.67 137.98 21.27L137.98 21.27L137.98 22.97Q137.08 23.36 136.20 23.55Q135.32 23.74 134.11 23.74L134.11 23.74Q132.44 23.74 131.15 23.06Q129.87 22.37 129.15 21.02Q128.44 19.67 128.44 17.71L128.44 17.71Q128.44 15.77 129.09 14.39Q129.73 13.00 130.91 12.25Q132.09 11.51 133.65 11.51ZM133.63 13.09L133.63 13.09Q132.24 13.09 131.44 13.98Q130.64 14.87 130.48 16.46L130.48 16.46L136.49 16.46Q136.49 15.44 136.18 14.70Q135.87 13.95 135.25 13.52Q134.62 13.09 133.63 13.09ZM151.76 17.60L151.76 17.60Q151.76 19.07 151.37 20.21Q150.99 21.34 150.27 22.13Q149.56 22.92 148.53 23.33Q147.51 23.74 146.26 23.74L146.26 23.74Q145.09 23.74 144.10 23.33Q143.11 22.92 142.38 22.13Q141.66 21.34 141.25 20.21Q140.84 19.07 140.84 17.60L140.84 17.60Q140.84 15.64 141.50 14.29Q142.16 12.94 143.40 12.22Q144.63 11.51 146.32 11.51L146.32 11.51Q147.93 11.51 149.15 12.22Q150.37 12.94 151.06 14.29Q151.76 15.64 151.76 17.60ZM142.85 17.60L142.85 17.60Q142.85 18.99 143.21 20.01Q143.57 21.03 144.34 21.58Q145.11 22.13 146.30 22.13L146.30 22.13Q147.49 22.13 148.26 21.58Q149.03 21.03 149.39 20.01Q149.75 18.99 149.75 17.60L149.75 17.60Q149.75 16.19 149.38 15.20Q149.01 14.21 148.25 13.67Q147.49 13.13 146.28 13.13L146.28 13.13Q144.47 13.13 143.66 14.32Q142.85 15.51 142.85 17.60ZM162.49 20.26L162.49 20.26Q162.49 21.41 161.92 22.18Q161.35 22.95 160.29 23.34Q159.24 23.74 157.78 23.74L157.78 23.74Q156.55 23.74 155.66 23.54Q154.77 23.34 154.09 22.99L154.09 22.99L154.09 21.23Q154.79 21.58 155.79 21.88Q156.79 22.18 157.83 22.18L157.83 22.18Q159.30 22.18 159.96 21.70Q160.62 21.23 160.62 20.44L160.62 20.44Q160.62 20.00 160.38 19.65Q160.14 19.29 159.51 18.94Q158.88 18.59 157.72 18.15L157.72 18.15Q156.57 17.71 155.76 17.27Q154.95 16.83 154.51 16.21Q154.07 15.60 154.07 14.63L154.07 14.63Q154.07 13.13 155.29 12.32Q156.51 11.51 158.49 11.51L158.49 11.51Q159.57 11.51 160.50 11.71Q161.44 11.92 162.25 12.30L162.25 12.30L161.59 13.84Q160.84 13.53 160.03 13.31Q159.21 13.09 158.36 13.09L158.36 13.09Q157.17 13.09 156.54 13.47Q155.91 13.86 155.91 14.52L155.91 14.52Q155.91 15.00 156.20 15.34Q156.49 15.69 157.16 16.00Q157.83 16.32 158.95 16.76L158.95 16.76Q160.07 17.18 160.86 17.62Q161.66 18.06 162.07 18.69Q162.49 19.32 162.49 20.26ZM175.01 22.15L175.01 22.15Q175.45 22.15 175.91 22.08Q176.37 22.00 176.66 21.91L176.66 21.91L176.66 23.39Q176.35 23.54 175.78 23.64Q175.21 23.74 174.68 23.74L174.68 23.74Q173.76 23.74 172.98 23.42Q172.19 23.10 171.71 22.31Q171.23 21.52 171.23 20.09L171.23 20.09L171.23 13.22L169.55 13.22L169.55 12.30L171.25 11.53L172.02 9.02L173.16 9.02L173.16 11.73L176.57 11.73L176.57 13.22L173.16 13.22L173.16 20.04Q173.16 21.12 173.68 21.64Q174.20 22.15 175.01 22.15ZM189.27 17.60L189.27 17.60Q189.27 19.07 188.88 20.21Q188.50 21.34 187.78 22.13Q187.07 22.92 186.04 23.33Q185.02 23.74 183.77 23.74L183.77 23.74Q182.60 23.74 181.61 23.33Q180.62 22.92 179.89 22.13Q179.17 21.34 178.76 20.21Q178.35 19.07 178.35 17.60L178.35 17.60Q178.35 15.64 179.01 14.29Q179.67 12.94 180.91 12.22Q182.14 11.51 183.83 11.51L183.83 11.51Q185.44 11.51 186.66 12.22Q187.88 12.94 188.57 14.29Q189.27 15.64 189.27 17.60ZM180.36 17.60L180.36 17.60Q180.36 18.99 180.72 20.01Q181.08 21.03 181.85 21.58Q182.62 22.13 183.81 22.13L183.81 22.13Q185.00 22.13 185.77 21.58Q186.54 21.03 186.90 20.01Q187.26 18.99 187.26 17.60L187.26 17.60Q187.26 16.19 186.89 15.20Q186.52 14.21 185.76 13.67Q185.00 13.13 183.79 13.13L183.79 13.13Q181.98 13.13 181.17 14.32Q180.36 15.51 180.36 17.60ZM205.72 20.26L205.72 20.26Q205.72 21.41 205.15 22.18Q204.58 22.95 203.52 23.34Q202.47 23.74 201.01 23.74L201.01 23.74Q199.78 23.74 198.89 23.54Q198.00 23.34 197.32 22.99L197.32 22.99L197.32 21.23Q198.02 21.58 199.02 21.88Q200.02 22.18 201.06 22.18L201.06 22.18Q202.53 22.18 203.19 21.70Q203.85 21.23 203.85 20.44L203.85 20.44Q203.85 20.00 203.61 19.65Q203.37 19.29 202.74 18.94Q202.11 18.59 200.95 18.15L200.95 18.15Q199.80 17.71 198.99 17.27Q198.18 16.83 197.74 16.21Q197.30 15.60 197.30 14.63L197.30 14.63Q197.30 13.13 198.52 12.32Q199.74 11.51 201.72 11.51L201.72 11.51Q202.80 11.51 203.73 11.71Q204.67 11.92 205.48 12.30L205.48 12.30L204.82 13.84Q204.07 13.53 203.26 13.31Q202.44 13.09 201.59 13.09L201.59 13.09Q200.40 13.09 199.77 13.47Q199.14 13.86 199.14 14.52L199.14 14.52Q199.14 15.00 199.43 15.34Q199.72 15.69 200.39 16.00Q201.06 16.32 202.18 16.76L202.18 16.76Q203.30 17.18 204.09 17.62Q204.89 18.06 205.30 18.69Q205.72 19.32 205.72 20.26ZM212.52 22.15L212.52 22.15Q212.96 22.15 213.42 22.08Q213.88 22.00 214.17 21.91L214.17 21.91L214.17 23.39Q213.86 23.54 213.29 23.64Q212.72 23.74 212.19 23.74L212.19 23.74Q211.27 23.74 210.49 23.42Q209.70 23.10 209.22 22.31Q208.74 21.52 208.74 20.09L208.74 20.09L208.74 13.22L207.06 13.22L207.06 12.30L208.76 11.53L209.53 9.02L210.67 9.02L210.67 11.73L214.08 11.73L214.08 13.22L210.67 13.22L210.67 20.04Q210.67 21.12 211.19 21.64Q211.71 22.15 212.52 22.15ZM224.44 11.73L226.38 11.73L226.38 23.52L224.80 23.52L224.51 21.96L224.42 21.96Q224.05 22.57 223.45 22.97Q222.86 23.36 222.16 23.55Q221.45 23.74 220.68 23.74L220.68 23.74Q219.27 23.74 218.32 23.29Q217.36 22.84 216.88 21.89Q216.39 20.94 216.39 19.45L216.39 19.45L216.39 11.73L218.35 11.73L218.35 19.32Q218.35 20.72 218.99 21.43Q219.63 22.13 220.97 22.13L220.97 22.13Q222.29 22.13 223.05 21.64Q223.81 21.14 224.13 20.18Q224.44 19.23 224.44 17.86L224.44 17.86L224.44 11.73ZM234.30 23.74L234.30 23.74Q232.10 23.74 230.78 22.21Q229.46 20.68 229.46 17.64L229.46 17.64Q229.46 14.61 230.79 13.06Q232.12 11.51 234.32 11.51L234.32 11.51Q235.25 11.51 235.93 11.74Q236.61 11.97 237.12 12.36Q237.62 12.76 237.97 13.24L237.97 13.24L238.11 13.24Q238.08 12.96 238.03 12.40Q237.97 11.84 237.97 11.51L237.97 11.51L237.97 6.80L239.91 6.80L239.91 23.52L238.35 23.52L238.06 21.93L237.97 21.93Q237.62 22.44 237.12 22.85Q236.61 23.25 235.92 23.50Q235.22 23.74 234.30 23.74ZM234.61 22.13L234.61 22.13Q236.48 22.13 237.24 21.11Q238.00 20.09 238.00 18.02L238.00 18.02L238.00 17.67Q238.00 15.47 237.27 14.29Q236.54 13.11 234.59 13.11L234.59 13.11Q233.02 13.11 232.24 14.35Q231.46 15.60 231.46 17.69L231.46 17.69Q231.46 19.80 232.24 20.97Q233.02 22.13 234.61 22.13ZM246.55 23.56L241.80 11.73L243.87 11.73L246.42 18.44Q246.64 19.03 246.83 19.58Q247.02 20.13 247.17 20.65Q247.32 21.16 247.41 21.65L247.41 21.65L247.50 21.65Q247.63 21.10 247.92 20.21Q248.20 19.32 248.51 18.41L248.51 18.41L250.91 11.73L253.00 11.73L247.92 25.15Q247.50 26.25 246.94 27.07Q246.38 27.90 245.58 28.35Q244.77 28.80 243.63 28.80L243.63 28.80Q243.10 28.80 242.70 28.74Q242.31 28.69 242.02 28.62L242.02 28.62L242.02 27.08Q242.26 27.13 242.61 27.17Q242.95 27.21 243.32 27.21L243.32 27.21Q244.00 27.21 244.50 26.96Q244.99 26.71 245.34 26.23Q245.70 25.76 245.94 25.12L245.94 25.12L246.55 23.56ZM268.27 20.26L268.27 20.26Q268.27 21.41 267.70 22.18Q267.12 22.95 266.07 23.34Q265.01 23.74 263.56 23.74L263.56 23.74Q262.33 23.74 261.44 23.54Q260.55 23.34 259.86 22.99L259.86 22.99L259.86 21.23Q260.57 21.58 261.57 21.88Q262.57 22.18 263.60 22.18L263.60 22.18Q265.08 22.18 265.74 21.70Q266.40 21.23 266.40 20.44L266.40 20.44Q266.40 20.00 266.16 19.65Q265.91 19.29 265.29 18.94Q264.66 18.59 263.49 18.15L263.49 18.15Q262.35 17.71 261.54 17.27Q260.72 16.83 260.28 16.21Q259.84 15.60 259.84 14.63L259.84 14.63Q259.84 13.13 261.06 12.32Q262.28 11.51 264.26 11.51L264.26 11.51Q265.34 11.51 266.28 11.71Q267.21 11.92 268.03 12.30L268.03 12.30L267.37 13.84Q266.62 13.53 265.80 13.31Q264.99 13.09 264.13 13.09L264.13 13.09Q262.94 13.09 262.32 13.47Q261.69 13.86 261.69 14.52L261.69 14.52Q261.69 15.00 261.98 15.34Q262.26 15.69 262.93 16.00Q263.60 16.32 264.73 16.76L264.73 16.76Q265.85 17.18 266.64 17.62Q267.43 18.06 267.85 18.69Q268.27 19.32 268.27 20.26ZM275.68 11.51L275.68 11.51Q277.20 11.51 278.29 12.17Q279.38 12.83 279.96 14.02Q280.54 15.22 280.54 16.83L280.54 16.83L280.54 18.00L272.47 18.00Q272.51 20.00 273.49 21.04Q274.47 22.09 276.23 22.09L276.23 22.09Q277.35 22.09 278.22 21.88Q279.09 21.67 280.02 21.27L280.02 21.27L280.02 22.97Q279.11 23.36 278.23 23.55Q277.35 23.74 276.14 23.74L276.14 23.74Q274.47 23.74 273.19 23.06Q271.90 22.37 271.18 21.02Q270.47 19.67 270.47 17.71L270.47 17.71Q270.47 15.77 271.12 14.39Q271.77 13.00 272.94 12.25Q274.12 11.51 275.68 11.51ZM275.66 13.09L275.66 13.09Q274.27 13.09 273.47 13.98Q272.67 14.87 272.51 16.46L272.51 16.46L278.52 16.46Q278.52 15.44 278.21 14.70Q277.90 13.95 277.28 13.52Q276.65 13.09 275.66 13.09ZM291.21 20.26L291.21 20.26Q291.21 21.41 290.64 22.18Q290.07 22.95 289.01 23.34Q287.96 23.74 286.51 23.74L286.51 23.74Q285.27 23.74 284.38 23.54Q283.49 23.34 282.81 22.99L282.81 22.99L282.81 21.23Q283.51 21.58 284.52 21.88Q285.52 22.18 286.55 22.18L286.55 22.18Q288.02 22.18 288.68 21.70Q289.34 21.23 289.34 20.44L289.34 20.44Q289.34 20.00 289.10 19.65Q288.86 19.29 288.23 18.94Q287.61 18.59 286.44 18.15L286.44 18.15Q285.30 17.71 284.48 17.27Q283.67 16.83 283.23 16.21Q282.79 15.60 282.79 14.63L282.79 14.63Q282.79 13.13 284.01 12.32Q285.23 11.51 287.21 11.51L287.21 11.51Q288.29 11.51 289.22 11.71Q290.16 11.92 290.97 12.30L290.97 12.30L290.31 13.84Q289.56 13.53 288.75 13.31Q287.94 13.09 287.08 13.09L287.08 13.09Q285.89 13.09 285.26 13.47Q284.64 13.86 284.64 14.52L284.64 14.52Q284.64 15.00 284.92 15.34Q285.21 15.69 285.88 16.00Q286.55 16.32 287.67 16.76L287.67 16.76Q288.79 17.18 289.59 17.62Q290.38 18.06 290.80 18.69Q291.21 19.32 291.21 20.26ZM301.75 20.26L301.75 20.26Q301.75 21.41 301.18 22.18Q300.61 22.95 299.55 23.34Q298.50 23.74 297.04 23.74L297.04 23.74Q295.81 23.74 294.92 23.54Q294.03 23.34 293.35 22.99L293.35 22.99L293.35 21.23Q294.05 21.58 295.05 21.88Q296.05 22.18 297.09 22.18L297.09 22.18Q298.56 22.18 299.22 21.70Q299.88 21.23 299.88 20.44L299.88 20.44Q299.88 20.00 299.64 19.65Q299.40 19.29 298.77 18.94Q298.14 18.59 296.98 18.15L296.98 18.15Q295.83 17.71 295.02 17.27Q294.21 16.83 293.77 16.21Q293.33 15.60 293.33 14.63L293.33 14.63Q293.33 13.13 294.55 12.32Q295.77 11.51 297.75 11.51L297.75 11.51Q298.83 11.51 299.76 11.71Q300.70 11.92 301.51 12.30L301.51 12.30L300.85 13.84Q300.10 13.53 299.29 13.31Q298.47 13.09 297.62 13.09L297.62 13.09Q296.43 13.09 295.80 13.47Q295.17 13.86 295.17 14.52L295.17 14.52Q295.17 15.00 295.46 15.34Q295.75 15.69 296.42 16.00Q297.09 16.32 298.21 16.76L298.21 16.76Q299.33 17.18 300.12 17.62Q300.92 18.06 301.33 18.69Q301.75 19.32 301.75 20.26ZM312.29 20.26L312.29 20.26Q312.29 21.41 311.72 22.18Q311.15 22.95 310.09 23.34Q309.03 23.74 307.58 23.74L307.58 23.74Q306.35 23.74 305.46 23.54Q304.57 23.34 303.89 22.99L303.89 22.99L303.89 21.23Q304.59 21.58 305.59 21.88Q306.59 22.18 307.63 22.18L307.63 22.18Q309.10 22.18 309.76 21.70Q310.42 21.23 310.42 20.44L310.42 20.44Q310.42 20.00 310.18 19.65Q309.94 19.29 309.31 18.94Q308.68 18.59 307.52 18.15L307.52 18.15Q306.37 17.71 305.56 17.27Q304.74 16.83 304.30 16.21Q303.86 15.60 303.86 14.63L303.86 14.63Q303.86 13.13 305.09 12.32Q306.31 11.51 308.29 11.51L308.29 11.51Q309.36 11.51 310.30 11.71Q311.23 11.92 312.05 12.30L312.05 12.30L311.39 13.84Q310.64 13.53 309.83 13.31Q309.01 13.09 308.15 13.09L308.15 13.09Q306.97 13.09 306.34 13.47Q305.71 13.86 305.71 14.52L305.71 14.52Q305.71 15.00 306.00 15.34Q306.28 15.69 306.96 16.00Q307.63 16.32 308.75 16.76L308.75 16.76Q309.87 17.18 310.66 17.62Q311.45 18.06 311.87 18.69Q312.29 19.32 312.29 20.26ZM315.15 11.73L317.09 11.73L317.09 23.52L315.15 23.52L315.15 11.73ZM316.14 7.30L316.14 7.30Q316.58 7.30 316.92 7.60Q317.26 7.90 317.26 8.54L317.26 8.54Q317.26 9.15 316.92 9.46Q316.58 9.77 316.14 9.77L316.14 9.77Q315.66 9.77 315.33 9.46Q315.00 9.15 315.00 8.54L315.00 8.54Q315.00 7.90 315.33 7.60Q315.66 7.30 316.14 7.30ZM331.08 17.60L331.08 17.60Q331.08 19.07 330.69 20.21Q330.31 21.34 329.59 22.13Q328.88 22.92 327.86 23.33Q326.83 23.74 325.58 23.74L325.58 23.74Q324.41 23.74 323.42 23.33Q322.43 22.92 321.71 22.13Q320.98 21.34 320.57 20.21Q320.17 19.07 320.17 17.60L320.17 17.60Q320.17 15.64 320.83 14.29Q321.49 12.94 322.72 12.22Q323.95 11.51 325.64 11.51L325.64 11.51Q327.25 11.51 328.47 12.22Q329.69 12.94 330.39 14.29Q331.08 15.64 331.08 17.60ZM322.17 17.60L322.17 17.60Q322.17 18.99 322.53 20.01Q322.89 21.03 323.66 21.58Q324.43 22.13 325.62 22.13L325.62 22.13Q326.81 22.13 327.58 21.58Q328.35 21.03 328.71 20.01Q329.08 18.99 329.08 17.60L329.08 17.60Q329.08 16.19 328.70 15.20Q328.33 14.21 327.57 13.67Q326.81 13.13 325.60 13.13L325.60 13.13Q323.80 13.13 322.98 14.32Q322.17 15.51 322.17 17.60ZM339.81 11.51L339.81 11.51Q341.92 11.51 343.00 12.53Q344.08 13.55 344.08 15.84L344.08 15.84L344.08 23.52L342.17 23.52L342.17 15.97Q342.17 14.54 341.53 13.84Q340.89 13.13 339.53 13.13L339.53 13.13Q337.57 13.13 336.82 14.23Q336.07 15.33 336.07 17.40L336.07 17.40L336.07 23.52L334.14 23.52L334.14 11.73L335.70 11.73L335.98 13.33L336.09 13.33Q336.49 12.72 337.07 12.31Q337.66 11.90 338.36 11.70Q339.06 11.51 339.81 11.51ZM355.41 20.26L355.41 20.26Q355.41 21.41 354.84 22.18Q354.27 22.95 353.21 23.34Q352.15 23.74 350.70 23.74L350.70 23.74Q349.47 23.74 348.58 23.54Q347.69 23.34 347.01 22.99L347.01 22.99L347.01 21.23Q347.71 21.58 348.71 21.88Q349.71 22.18 350.75 22.18L350.75 22.18Q352.22 22.18 352.88 21.70Q353.54 21.23 353.54 20.44L353.54 20.44Q353.54 20.00 353.30 19.65Q353.06 19.29 352.43 18.94Q351.80 18.59 350.64 18.15L350.64 18.15Q349.49 17.71 348.68 17.27Q347.86 16.83 347.42 16.21Q346.98 15.60 346.98 14.63L346.98 14.63Q346.98 13.13 348.21 12.32Q349.43 11.51 351.41 11.51L351.41 11.51Q352.48 11.51 353.42 11.71Q354.35 11.92 355.17 12.30L355.17 12.30L354.51 13.84Q353.76 13.53 352.95 13.31Q352.13 13.09 351.27 13.09L351.27 13.09Q350.09 13.09 349.46 13.47Q348.83 13.86 348.83 14.52L348.83 14.52Q348.83 15.00 349.12 15.34Q349.40 15.69 350.08 16.00Q350.75 16.32 351.87 16.76L351.87 16.76Q352.99 17.18 353.78 17.62Q354.57 18.06 354.99 18.69Q355.41 19.32 355.41 20.26Z"
                    transform="translate(0, 0)"></path>
            </g>
        </svg>
    </g>
    <g transform="rotate(0 0 0)">
        <svg viewBoxSize="575" data-root-id="5297192330134" xmlns="http://www.w3.org/2000/svg"
            y="314.5039978027344"
            viewBox="2.0299999713897705 17.920000076293945 335.760009765625 58"
            x="119.61997985839844" height="58" width="335.760009765625"
            fontUrl="https://fonts.gstatic.com/s/notosans/v42/o-0mIpQlx3QUlC5A4PNB6Ryti20_6n1iPHjcz6L1SoM-jCpoiyAjBN9d41P6zHtY.ttf"
            zoom="1" editorType="buyer" data-layer-role="brandName"
            style="position: absolute; top: 314.504px; width: 335.76px; height: 58px; left: 119.62px;">
            <g data-horizontal-grow="center" zoom="1" root="[object Object]"
                style="fill: rgb(0, 0, 0);">
                <path
                    d="M19.43 57.77L19.43 62.00L2.03 62.00L2.03 57.77L7.02 55.91L7.02 26.74L2.03 24.82L2.03 20.59L19.43 20.59L19.43 24.82L14.44 26.74L14.44 55.91L19.43 57.77ZM42.86 29.99L42.86 29.99Q48.20 29.99 51.16 32.71Q54.11 35.44 54.11 41.53L54.11 41.53L54.11 62.00L46.81 62.00L46.81 43.04Q46.81 39.44 45.39 37.67Q43.96 35.90 41.01 35.90L41.01 35.90Q36.60 35.90 34.97 38.69Q33.35 41.47 33.35 46.69L33.35 46.69L33.35 62.00L25.98 62.00L25.98 30.57L31.67 30.57L32.71 34.80L33.06 34.80Q34.10 33.18 35.61 32.10Q37.12 31.03 38.95 30.51Q40.77 29.99 42.86 29.99ZM84.56 52.95L84.56 52.95Q84.56 55.97 83.11 58.12Q81.66 60.26 78.82 61.42Q75.98 62.58 71.75 62.58L71.75 62.58Q68.44 62.58 65.95 62.12Q63.45 61.65 61.31 60.67L61.31 60.67L61.31 54.40Q63.63 55.51 66.44 56.23Q69.25 56.96 71.63 56.96L71.63 56.96Q74.76 56.96 76.15 56.03Q77.55 55.10 77.55 53.53L77.55 53.53Q77.55 52.55 76.94 51.77Q76.33 50.98 74.73 50.17Q73.14 49.36 70.24 48.20L70.24 48.20Q67.34 47.04 65.34 45.85Q63.34 44.66 62.29 42.95Q61.25 41.24 61.25 38.69L61.25 38.69Q61.25 34.45 64.61 32.22Q67.98 29.99 73.49 29.99L73.49 29.99Q76.44 29.99 79.03 30.57Q81.61 31.15 84.10 32.31L84.10 32.31L81.90 37.53Q79.75 36.60 77.49 35.99Q75.23 35.38 73.31 35.38L73.31 35.38Q70.88 35.38 69.57 36.13Q68.27 36.89 68.27 38.22L68.27 38.22Q68.27 39.27 68.90 39.99Q69.54 40.72 71.17 41.47Q72.79 42.22 75.69 43.33L75.69 43.33Q78.53 44.43 80.53 45.65Q82.53 46.86 83.55 48.58Q84.56 50.29 84.56 52.95ZM91.58 30.57L98.95 30.57L98.95 62.00L91.58 62.00L91.58 30.57ZM95.35 18.39L95.35 18.39Q96.98 18.39 98.19 19.26Q99.41 20.13 99.41 22.27L99.41 22.27Q99.41 24.36 98.19 25.26Q96.98 26.16 95.35 26.16L95.35 26.16Q93.61 26.16 92.42 25.26Q91.23 24.36 91.23 22.27L91.23 22.27Q91.23 20.13 92.42 19.26Q93.61 18.39 95.35 18.39ZM118.73 29.99L118.73 29.99Q121.92 29.99 124.21 31.18Q126.50 32.36 128.06 34.57L128.06 34.57L128.35 34.57L129.11 30.57L135.26 30.57L135.26 62.35Q135.26 66.82 133.60 69.83Q131.95 72.85 128.62 74.39Q125.28 75.92 120.12 75.92L120.12 75.92Q116.58 75.92 113.71 75.46Q110.84 74.99 108.40 74.01L108.40 74.01L108.40 67.57Q110.90 68.73 113.71 69.37Q116.52 70.01 120.06 70.01L120.06 70.01Q123.83 70.01 125.86 68.09Q127.89 66.18 127.89 62.76L127.89 62.76L127.89 61.83Q127.89 61.07 127.98 59.89Q128.06 58.70 128.12 57.88L128.12 57.88L127.89 57.88Q126.44 60.09 124.18 61.34Q121.92 62.58 118.67 62.58L118.67 62.58Q112.98 62.58 109.68 58.35Q106.37 54.11 106.37 46.34L106.37 46.34Q106.37 38.63 109.71 34.31Q113.04 29.99 118.73 29.99ZM120.76 35.90L120.76 35.90Q118.55 35.90 117.02 37.12Q115.48 38.34 114.70 40.69Q113.91 43.04 113.91 46.40L113.91 46.40Q113.91 51.56 115.68 54.14Q117.45 56.72 120.87 56.72L120.87 56.72Q122.84 56.72 124.24 56.17Q125.63 55.62 126.53 54.49Q127.43 53.36 127.86 51.62Q128.30 49.88 128.30 47.50L128.30 47.50L128.30 46.23Q128.30 42.69 127.51 40.40Q126.73 38.11 125.08 37.00Q123.42 35.90 120.76 35.90ZM151.67 17.92L151.67 28.30Q151.67 30.33 151.55 31.99Q151.44 33.64 151.32 34.68L151.32 34.68L151.73 34.68Q152.71 33.06 154.16 32.05Q155.61 31.03 157.38 30.51Q159.15 29.99 161.07 29.99L161.07 29.99Q164.60 29.99 167.16 31.20Q169.71 32.42 171.07 34.95Q172.43 37.47 172.43 41.53L172.43 41.53L172.43 62.00L165.07 62.00L165.07 43.04Q165.07 39.44 163.68 37.67Q162.28 35.90 159.33 35.90L159.33 35.90Q156.43 35.90 154.74 37.18Q153.06 38.45 152.37 40.83Q151.67 43.21 151.67 46.69L151.67 46.69L151.67 62.00L144.30 62.00L144.30 17.92L151.67 17.92ZM193.66 56.72L193.66 56.72Q195.05 56.72 196.33 56.46Q197.61 56.20 198.71 55.85L198.71 55.85L198.71 61.31Q197.55 61.83 195.69 62.21Q193.84 62.58 191.81 62.58L191.81 62.58Q189.14 62.58 186.96 61.68Q184.79 60.78 183.48 58.58Q182.18 56.38 182.18 52.43L182.18 52.43L182.18 36.08L177.94 36.08L177.94 32.89L182.58 30.33L184.90 23.66L189.49 23.66L189.49 30.57L198.42 30.57L198.42 36.08L189.49 36.08L189.49 52.37Q189.49 54.58 190.65 55.65Q191.81 56.72 193.66 56.72ZM220.57 26.91L220.57 62.00L213.09 62.00L213.09 26.91L201.26 26.91L201.26 20.59L232.41 20.59L232.41 26.91L220.57 26.91ZM258.45 30.57L265.81 30.57L265.81 62.00L260.07 62.00L259.03 57.94L258.68 57.94Q257.69 59.57 256.13 60.58Q254.56 61.60 252.74 62.09Q250.91 62.58 248.88 62.58L248.88 62.58Q245.40 62.58 242.85 61.39Q240.29 60.20 238.96 57.65Q237.63 55.10 237.63 51.10L237.63 51.10L237.63 30.57L244.99 30.57L244.99 49.59Q244.99 53.07 246.38 54.84Q247.78 56.61 250.73 56.61L250.73 56.61Q253.69 56.61 255.37 55.39Q257.06 54.17 257.75 51.77Q258.45 49.36 258.45 45.88L258.45 45.88L258.45 30.57ZM282.23 17.92L282.23 28.36Q282.23 30.22 282.14 31.87Q282.05 33.52 281.88 34.68L281.88 34.68L282.23 34.68Q283.50 32.71 285.71 31.35Q287.91 29.99 291.45 29.99L291.45 29.99Q296.90 29.99 300.30 34.10Q303.69 38.22 303.69 46.23L303.69 46.23Q303.69 51.62 302.15 55.27Q300.61 58.93 297.80 60.76Q294.99 62.58 291.28 62.58L291.28 62.58Q287.74 62.58 285.62 61.31Q283.50 60.03 282.23 58.35L282.23 58.35L281.71 58.35L280.37 62.00L274.86 62.00L274.86 17.92L282.23 17.92ZM289.36 35.90L289.36 35.90Q286.75 35.90 285.16 36.98Q283.56 38.05 282.90 40.19Q282.23 42.34 282.23 45.70L282.23 45.70L282.23 46.40Q282.23 51.39 283.79 53.97Q285.36 56.55 289.48 56.55L289.48 56.55Q292.78 56.55 294.47 53.88Q296.15 51.21 296.15 46.17L296.15 46.17Q296.15 41.06 294.50 38.48Q292.84 35.90 289.36 35.90ZM324.10 29.99L324.10 29.99Q328.34 29.99 331.41 31.67Q334.49 33.35 336.14 36.54Q337.79 39.73 337.79 44.25L337.79 44.25L337.79 48.02L317.09 48.02Q317.20 52.26 319.46 54.58Q321.73 56.90 325.90 56.90L325.90 56.90Q328.86 56.90 331.24 56.32Q333.62 55.74 336.11 54.64L336.11 54.64L336.11 60.44Q333.79 61.54 331.30 62.06Q328.80 62.58 325.26 62.58L325.26 62.58Q320.68 62.58 317.12 60.81Q313.55 59.04 311.55 55.45Q309.55 51.85 309.55 46.52L309.55 46.52Q309.55 41.12 311.37 37.44Q313.20 33.76 316.48 31.87Q319.75 29.99 324.10 29.99ZM324.22 35.44L324.22 35.44Q321.20 35.44 319.38 37.35Q317.55 39.27 317.26 42.86L317.26 42.86L330.66 42.86Q330.66 40.66 329.96 39.01Q329.27 37.35 327.85 36.39Q326.42 35.44 324.22 35.44Z"
                    transform="translate(0, 0)"></path>
            </g>
        </svg>
    </g>
</svg>